<?xml version="1.0" encoding="UTF-8" standalone="no"?>
<!-- Created with Inkscape (http://www.inkscape.org/) -->

<svg
   width="150mm"
   height="150mm"
   viewBox="0 0 150 150"
   version="1.1"
   id="svg1"
   xml:space="preserve"
   inkscape:version="1.3.1 (9b9bdc1480, 2023-11-25, custom)"
   sodipodi:docname="logo.svg"
   xmlns:inkscape="http://www.inkscape.org/namespaces/inkscape"
   xmlns:sodipodi="http://sodipodi.sourceforge.net/DTD/sodipodi-0.dtd"
   xmlns="http://www.w3.org/2000/svg"
   xmlns:svg="http://www.w3.org/2000/svg"><sodipodi:namedview
     id="namedview1"
     pagecolor="#ffffff"
     bordercolor="#000000"
     borderopacity="0.25"
     inkscape:showpageshadow="2"
     inkscape:pageopacity="0.0"
     inkscape:pagecheckerboard="0"
     inkscape:deskcolor="#d1d1d1"
     inkscape:document-units="mm"
     inkscape:zoom="0.36346801"
     inkscape:cx="1107.3877"
     inkscape:cy="519.99074"
     inkscape:window-width="1850"
     inkscape:window-height="1016"
     inkscape:window-x="0"
     inkscape:window-y="0"
     inkscape:window-maximized="1"
     inkscape:current-layer="layer1" /><defs
     id="defs1" /><g
     inkscape:label="Слой 1"
     inkscape:groupmode="layer"
     id="layer1"><path
       style="fill:#ff0f0f;stroke-width:0.578711;fill-opacity:1"
       d="m 42.35782,149.29892 c -3.927266,-2.02646 -10.471741,-7.6128 -15.278294,-13.04149 l -1.913965,-2.16169 -0.612473,0.0884 c -1.623533,0.23443 -2.546959,0.25613 -3.312524,0.0778 -1.348848,-0.31414 -2.792599,-1.16012 -3.769515,-2.20877 -1.512554,-1.62363 -1.875319,-2.72261 -1.875319,-5.68116 v -1.7226 l -2.050118,-1.85673 C 7.4572077,117.27867 1.3604992,109.87691 0.18808865,106.57591 c -0.22737554,-0.64019 -0.24090001,-0.83532 -0.0820612,-1.18394 0.1787233,-0.39225 0.23512448,-0.41209 0.93593185,-0.32909 1.3424185,0.15899 3.8627916,1.64105 6.8979049,4.05618 2.3830968,1.8963 3.6948668,3.10315 8.0386598,7.39568 l 4.134167,4.08537 1.607728,-0.30408 c 0.884253,-0.16725 1.652359,-0.34916 1.706902,-0.40426 0.05457,-0.0551 3.082962,-3.99319 6.72983,-8.75131 C 40.334229,97.862271 46.53172,89.57421 46.92305,88.718997 c 0.92522,-2.021976 1.009776,-3.252287 0.763615,-11.111548 -0.09886,-3.156394 -0.08322,-5.299378 0.05654,-7.743454 0.264674,-4.629294 0.01418,-6.854738 -0.990243,-8.797049 -0.396915,-0.767556 -5.18146,-7.081362 -22.059097,-29.109745 l -1.365688,-1.782474 -1.750971,-0.305801 -1.750966,-0.305802 -4.220602,4.246919 c -2.321337,2.335805 -5.116343,4.989279 -6.2111317,5.896608 -3.8584223,3.197747 -6.861232,5.073447 -8.39968877,5.246854 -0.64682525,0.07291 -0.71412355,0.04739 -0.88936302,-0.337224 -0.15835847,-0.347558 -0.14390227,-0.546207 0.0877557,-1.205952 C 1.3370383,40.152802 7.449453,32.737935 13.532307,27.228898 l 2.063446,-1.868796 0.0012,-1.398994 c 0.0035,-4.194564 1.304958,-6.347076 4.668918,-7.721845 0.751398,-0.307077 1.16895,-0.373413 2.292836,-0.364255 0.755773,0.0062 1.617769,0.05236 1.915556,0.102669 0.534127,0.09024 0.562525,0.06692 2.106959,-1.729783 2.699386,-3.14032 7.47613,-7.6352275 11.140019,-10.4827418 3.480506,-2.7049906 6.125314,-4.08508719 6.966198,-3.63505955 1.174066,0.62834123 -1.15653,4.78642935 -5.613218,10.01471235 -0.724807,0.850291 -3.233721,3.442499 -5.575371,5.760462 l -4.257536,4.21448 0.37023,1.748103 c 0.203625,0.961457 0.457946,1.828791 0.565152,1.927408 0.416573,0.383204 19.749235,15.162397 23.851538,18.233724 5.931094,4.440519 6.836817,5.05021 8.144171,5.482299 1.697244,0.560944 3.586735,0.719141 6.492812,0.543595 5.343861,-0.322794 6.504507,-0.341214 9.55554,-0.151657 4.30767,0.267624 6.874751,0.249482 8.162962,-0.0577 2.018023,-0.48121 2.47168,-0.778494 11.359494,-7.443878 10.033427,-7.524536 19.449657,-14.844797 21.150427,-16.442518 0.83099,-0.780644 0.837,-0.792891 1.21225,-2.468826 l 0.37712,-1.68429 -3.30742,-3.203967 c -3.66553,-3.550879 -5.68971,-5.718695 -7.80271,-8.3563868 -2.65083,-3.3090855 -4.14375,-5.8047974 -4.30948,-7.2041379 -0.083,-0.70080858 -0.0632,-0.75720917 0.32908,-0.93593364 0.34915,-0.15908475 0.54657,-0.14487103 1.20727,0.0869218 3.3174,1.16385834 11.08581,7.61264714 16.40781,13.62061354 l 1.83741,2.074235 1.76084,-0.0082 c 1.41118,-0.0066 1.94211,0.05561 2.67357,0.313076 3.14977,1.108662 5.01111,4.031768 4.78543,7.515201 l -0.0859,1.32648 2.14727,1.902999 c 6.02133,5.33635 12.34404,12.924385 13.6688,16.40422 0.90075,2.36609 -1.22411,2.13054 -5.21997,-0.578654 -2.74193,-1.85903 -5.14545,-3.973576 -10.62061,-9.343685 -1.98303,-1.944983 -3.75666,-3.617224 -3.94139,-3.716089 -0.26464,-0.141635 -0.61989,-0.123951 -1.67512,0.08338 -1.67209,0.328537 -1.84425,0.474835 -4.56229,3.877019 -3.72968,4.668455 -15.09354,19.515769 -18.21942,23.804353 -2.20641,3.027121 -2.93224,4.226101 -3.3402,5.517604 -0.33619,1.064307 -0.33856,1.148568 -0.33856,12.019705 0,11.698147 0.006,11.806881 0.77295,13.37076 0.93927,1.915979 10.99357,15.369119 19.13565,25.604419 3.84306,4.83106 5.0497,6.19442 5.48234,6.19442 0.18666,0 0.81905,0.13301 1.4053,0.29557 l 1.06591,0.29557 3.83174,-3.77899 c 7.06271,-6.9655 10.4792,-9.84597 13.31449,-11.22555 1.33591,-0.65003 2.62337,-0.80885 2.98868,-0.36869 1.16569,1.40458 -6.20462,10.93407 -13.4659,17.4108 l -2.3701,2.11402 -0.003,2.04191 -0.003,2.04191 -0.65039,1.31293 c -1.42963,2.88596 -3.72588,4.09423 -7.79038,4.09926 l -0.93803,0.001 -1.91279,2.10536 c -6.88396,7.57697 -15.66279,14.29879 -17.43548,13.35008 -1.03608,-0.55449 0.90591,-4.32929 4.37302,-8.50013 1.53298,-1.84414 5.47868,-6.03194 8.61598,-9.14466 l 2.12948,-2.11279 -0.3599,-1.71514 c -0.26309,-1.25377 -0.45097,-1.80236 -0.69845,-2.03937 -0.18621,-0.17833 -4.02485,-3.14551 -8.53033,-6.59374 -19.154195,-14.6595 -21.861005,-16.63437 -23.479324,-17.1303 -1.095639,-0.33577 -5.466614,-0.51191 -12.809473,-0.51621 -9.741403,-0.006 -12.28559,0.21811 -13.920414,1.22451 -0.752197,0.46307 -4.509322,3.24415 -9.276848,6.86688 -7.496668,5.69655 -21.281806,16.28494 -21.363081,16.40902 -0.04387,0.067 -0.207815,0.84247 -0.364304,1.7233 l -0.284517,1.60149 4.359771,4.34121 c 4.313995,4.29563 6.672856,6.94724 8.705919,9.78636 2.075119,2.89785 3.04053,5.25532 2.356841,5.75524 -0.465833,0.34063 -0.909467,0.24337 -2.401425,-0.52648 z"
       id="path1" /><path
       style="fill:#002af7;fill-opacity:1;stroke-width:0.737352"
       d="m 71.083873,115.93984 c -0.0644,-0.48308 -0.24937,-0.91058 -0.443145,-1.02422 -1.777808,-1.04275 -2.139112,-1.40481 -2.969088,-2.97513 -0.634078,-1.19967 -0.950497,-1.6095 -1.242682,-1.6095 -0.221575,0 -0.854339,-0.48119 -1.455415,-1.10677 -1.257836,-1.30908 -2.516942,-3.72645 -2.827619,-5.42875 -0.210804,-1.15503 -0.147903,-3.6034 0.108374,-4.217569 0.09065,-0.21717 0.01162,-0.34727 -0.254128,-0.41669 -0.627742,-0.16414 -1.205468,-1.60356 -1.811395,-4.51305 -0.313159,-1.5037 -0.604477,-2.7691 -0.647371,-2.81199 -0.04293,-0.0429 -0.281323,0.11392 -0.529839,0.34837 -0.650681,0.61397 -1.485482,1.01155 -1.977004,0.94158 -0.665837,-0.0948 -1.310287,-1.60388 -1.444876,-3.383426 l -0.11329,-1.497275 -0.792113,0.12672 c -0.435672,0.06974 -0.818313,0.152843 -0.850304,0.184844 -0.03206,0.03192 0.07448,0.434066 0.236527,0.893492 0.397925,1.127815 0.38802,2.323425 -0.02056,2.480215 -0.173398,0.0666 -0.77723,-0.10565 -1.341866,-0.38253 l -1.026637,-0.50352 -0.225329,1.757 c -0.385653,3.00719 -1.243936,4.65822 -2.817556,5.42 l -0.859991,0.41629 -0.0027,1.700889 c -0.0027,1.75848 -0.483026,3.63364 -1.109384,4.32574 -0.223815,0.24733 -0.251682,0.47476 -0.116128,0.94751 0.183811,0.64091 0.08639,1.15533 -0.459349,2.42411 -0.236669,0.55024 -0.270951,0.91869 -0.139814,1.50233 0.19476,0.86691 0.138964,0.98762 -0.456776,0.98762 -0.964875,0 -1.134149,-0.96884 -0.494226,-2.82882 0.465777,-1.35381 0.492195,-2.20701 0.09752,-3.15152 -0.394085,-0.94315 -0.384127,-3.63125 0.01788,-4.810839 0.170739,-0.50109 0.543844,-1.16096 0.829136,-1.46636 0.480622,-0.5145 0.5189,-0.68289 0.521511,-2.29388 0.0027,-1.58817 0.06323,-1.86523 0.700441,-3.2018 0.3837,-0.80474 1.018904,-1.88093 1.411578,-2.391546 0.805978,-1.047996 0.853293,-1.31173 0.379278,-2.114193 -0.460331,-0.779273 -0.622813,-0.709663 -0.498957,0.213754 0.05754,0.429196 0.06168,0.780361 0.0091,0.780361 -0.05262,0 -0.42168,-0.491103 -0.820226,-1.091334 -0.398533,-0.600249 -0.765887,-1.050072 -0.816345,-0.999595 -0.05044,0.05046 0.07915,0.541563 0.288058,1.091335 0.208905,0.549772 0.296246,0.999594 0.19409,0.999594 -0.249473,0 -2.235827,-1.27805 -2.40052,-1.544542 -0.276914,-0.448061 -0.447842,-0.168885 -0.557434,0.910503 -0.157869,1.554772 -0.457243,2.473813 -1.026054,3.149813 -0.620733,0.73769 -1.395919,0.91028 -2.331934,0.51919 -0.399772,-0.16703 -0.760028,-0.3037 -0.800573,-0.3037 -0.04056,0 -0.07421,0.63649 -0.07479,1.41442 -0.0015,1.71016 -0.248972,2.68111 -0.873027,3.42275 -0.443959,0.52762 -0.454408,0.59808 -0.196146,1.32291 0.369226,1.0363 0.356831,2.392089 -0.03126,3.423589 -0.176661,0.4695 -0.303287,1.28108 -0.281388,1.80353 0.0219,0.52241 -0.114407,1.37878 -0.302925,1.90302 -0.287647,0.79993 -0.304569,1.05877 -0.105268,1.60994 0.130631,0.36121 0.182605,0.79976 0.115525,0.97454 -0.181778,0.47369 -0.808149,0.38406 -1.169434,-0.16734 -0.341549,-0.52127 -0.316891,-1.14976 0.118741,-3.02649 0.238671,-1.02823 0.226131,-1.12141 -0.300456,-2.23316 -0.698476,-1.47463 -0.825219,-2.727459 -0.405689,-4.010089 0.253235,-0.77423 0.279471,-1.14804 0.121691,-1.73402 -0.276595,-1.02719 0.02831,-2.52317 0.85922,-4.21588 1.068957,-2.177601 1.907478,-2.828799 3.642514,-2.828799 0.45239,0 0.630895,-0.145002 0.951064,-0.772594 0.497108,-0.97442 0.493242,-1.070541 -0.05316,-1.319451 -0.775212,-0.353221 -2.666994,-2.214862 -3.20363,-3.152596 -0.283498,-0.495383 -0.540183,-0.933758 -0.570414,-0.974134 -0.03023,-0.04031 -0.380369,0.289036 -0.778075,0.732051 -1.613357,1.797188 -3.845666,2.755456 -6.418844,2.755456 H 29.63783 l -0.777468,0.843458 c -0.427604,0.463899 -0.828331,0.968692 -0.890497,1.121775 -0.204057,0.502422 -0.680309,-0.355104 -1.015361,-1.828219 C 26.213299,83.7984 26.442527,79.562841 27.54799,76.09075 l 0.496295,-1.558777 -0.791412,-0.741071 -0.791411,-0.741073 -0.615666,0.350893 c -1.350535,0.769741 -3.07232,2.610113 -3.772093,4.031892 -1.031053,2.094873 -1.328565,3.816144 -1.173935,6.791772 0.122564,2.358379 0.109961,2.484019 -0.269228,2.686971 -0.318323,0.170352 -0.471194,0.139496 -0.765157,-0.154458 -0.71878,-0.718786 -0.772503,-5.021711 -0.09646,-7.726132 0.569747,-2.279208 1.839604,-4.136221 4.033299,-5.89824 0.768008,-0.616866 1.428784,-1.142773 1.46838,-1.168637 0.08813,-0.05753 -0.09005,-0.228858 -1.865375,-1.792757 -0.918796,-0.809389 -1.491246,-1.184269 -1.658263,-1.085939 -0.140305,0.08263 -1.848844,1.144363 -3.796788,2.359527 -3.669302,2.288949 -4.359092,2.548893 -4.762664,1.794813 -0.34952,-0.653072 0.250293,-1.251629 2.958015,-2.951861 3.097105,-1.944703 4.948183,-2.876519 5.713978,-2.876365 0.702613,1.4e-4 1.877138,0.863113 4.363325,3.205907 0.885224,0.834165 1.609493,1.428998 1.609493,1.321821 0,-0.318771 -2.096269,-3.151601 -3.477163,-4.698911 l -1.284367,-1.43914 -1.472266,0.128775 c -0.809748,0.07082 -2.60689,0.249553 -3.993636,0.397181 -2.926842,0.311574 -3.428889,0.214961 -3.428889,-0.659869 0,-0.398165 0.13387,-0.654872 0.421881,-0.809011 0.404849,-0.216681 5.898632,-0.749882 7.820121,-0.759003 0.796683,-0.0035 1.037553,0.09628 1.723444,0.715937 0.859823,0.776799 3.762943,4.304291 4.263066,5.179913 0.168147,0.294397 0.369308,0.535813 0.447024,0.536499 0.250729,0.0027 0.759396,-1.177028 0.698299,-1.61883 -0.04402,-0.318242 0.0536,-0.444426 0.379706,-0.490734 0.525738,-0.07461 0.565023,-0.378516 0.09754,-0.754482 -0.306102,-0.246163 -0.276329,-0.262015 0.287878,-0.153355 0.922923,0.177734 1.142994,-0.0526 0.604705,-0.63313 l -0.453623,-0.489145 1.062063,0.143076 1.062069,0.143054 -0.334976,-0.511233 c -0.327554,-0.49992 -0.32515,-0.511224 0.108463,-0.510511 0.2439,4.09e-4 0.730896,0.17599 1.082214,0.39018 0.871348,0.531257 0.926051,0.49638 0.460085,-0.293364 -0.221575,-0.375548 -0.313684,-0.682819 -0.204681,-0.682819 0.381392,0 1.328539,0.586918 1.651078,1.023107 0.317893,0.429922 0.32262,0.420948 0.204637,-0.38906 -0.06887,-0.472666 -0.04203,-0.829138 0.06245,-0.829138 0.233118,0 0.938734,0.890733 1.094572,1.381719 0.197375,0.621876 0.409627,0.41997 0.324552,-0.308717 -0.04388,-0.375549 -0.0045,-0.682151 0.08795,-0.681316 0.217575,0.0021 1.045569,1.45132 1.045569,1.830218 0,0.160192 0.100196,0.353176 0.222648,0.428853 0.160393,0.0991 0.195185,-0.148283 0.12444,-0.884657 l -0.09823,-1.022265 0.449982,0.55477 c 0.247484,0.305116 0.652392,1.081498 0.899796,1.725298 l 0.449812,1.170536 0.0556,-0.780358 c 0.0918,-1.288221 0.17999,-1.388631 0.754055,-0.858352 l 0.506833,0.468174 -0.08949,-1.127359 -0.08949,-1.127363 0.514916,0.493315 c 0.283196,0.271326 0.562037,0.493319 0.619631,0.493319 0.05754,0 0.04474,-0.395057 -0.02858,-0.877905 -0.07332,-0.482845 -0.06607,-0.87791 0.01587,-0.87791 0.08212,0 0.410029,0.219475 0.728826,0.48773 0.318799,0.268243 0.623475,0.487721 0.67705,0.487721 0.05368,0 0.0065,-0.354316 -0.102409,-0.787361 -0.109915,-0.433058 -0.144439,-0.842779 -0.07668,-0.910499 0.06764,-0.06777 0.488313,0.170338 0.934642,0.529027 l 0.811522,0.652158 -0.119882,-1.011822 c -0.108106,-0.912323 -0.08704,-0.994199 0.212636,-0.832571 0.182872,0.09859 0.545291,0.406789 0.805421,0.684885 0.650177,0.695106 0.795137,0.638044 0.795137,-0.312988 v -0.818636 l 0.643325,0.62354 c 0.795979,0.771487 0.917391,0.776553 0.917391,0.03825 0,-0.734512 0.123749,-0.731598 1.041055,0.02446 l 0.73978,0.60978 0.59116,-0.561011 c 0.325146,-0.308551 1.921683,-2.005245 3.547883,-3.770409 1.626197,-1.765168 5.143329,-5.584063 7.815838,-8.486431 13.041961,-14.163663 20.509105,-20.657005 28.111169,-24.445108 4.663684,-2.32392 7.491624,-2.644414 8.567154,-0.970941 0.47722,0.742503 0.69547,2.499995 0.49034,3.94847 -0.24747,1.747473 -0.34291,2.101622 -0.99067,3.67575 -0.46589,1.132193 -0.49825,1.315845 -0.21152,1.200863 1.42856,-0.572921 4.683771,-1.524786 6.697161,-1.958348 2.71,-0.58356 6.52167,-0.726031 8.25009,-0.30836 2.95287,0.713563 5.30463,2.763866 6.32485,5.514135 1.81732,4.899067 -0.54233,11.80533 -6.94209,20.318265 -5.75539,7.655804 -10.77328,11.004827 -19.922571,13.296698 -4.656422,1.166411 -9.148279,1.852732 -14.748542,2.253436 -1.7168,0.122855 -3.38482,0.287907 -3.706721,0.366812 -0.573003,0.140462 -0.562787,0.150943 0.48772,0.499942 2.32954,0.773919 4.996124,2.357122 5.473977,3.250007 0.208526,0.389636 0.188415,0.412278 -0.264951,0.298497 -0.269826,-0.06763 -0.617796,-0.171946 -0.773232,-0.23159 -0.228448,-0.08768 -0.30231,0.206827 -0.385226,1.535965 -0.05638,0.90445 -0.198091,1.808833 -0.314828,2.009761 -0.202626,0.348791 -0.212525,0.347121 -0.218156,-0.03634 -0.0027,-0.220926 -0.11586,-0.551936 -0.250132,-0.735603 -0.216078,-0.295522 -0.364962,-0.153176 -1.294096,1.237302 -0.57744,0.864186 -1.080845,1.540308 -1.118644,1.502506 -0.03789,-0.03791 0.06014,-0.677202 0.217732,-1.420913 0.463215,-2.18667 0.299851,-4.57846 -0.407405,-5.964419 -0.205911,-0.403498 -1.108712,-0.947819 -1.572032,-0.947819 -0.03763,0 -0.0684,0.476741 -0.0684,1.059428 0,0.938134 0.04849,1.066556 0.423657,1.12176 0.233025,0.03428 0.46266,0.180593 0.5103,0.325146 0.0684,0.207453 0.0027,0.21771 -0.313303,0.04876 -0.562903,-0.301263 -0.620654,-0.276059 -0.620654,0.271068 0,0.369992 0.162002,0.552792 0.682804,0.7704 0.375553,0.15693 0.682815,0.370847 0.682815,0.475385 0,0.104486 -0.262249,0.05935 -0.582792,-0.100599 -1.144608,-0.57101 -1.392039,0.38762 -0.258978,1.003453 1.026276,0.557795 1.109876,1.022614 0.09038,0.502501 -0.986418,-0.503238 -1.006035,-0.502565 -0.996997,0.03401 0.0052,0.286664 0.275582,0.624445 0.780359,0.973599 1.006179,0.695946 0.99683,1.050672 -0.01408,0.534939 -0.783616,-0.39977 -1.168405,-0.378627 -1.15882,0.06374 0.0027,0.127771 0.419778,0.517034 0.926676,0.864998 0.506909,0.347954 1.27281,0.944292 1.702016,1.325207 l 0.780345,0.692542 -1.528528,-0.7887 c -0.840697,-0.433781 -1.652749,-0.78871 -1.804589,-0.78871 -0.487374,0 -0.296092,0.345981 0.444271,0.803543 0.731915,0.452369 2.699453,2.122818 2.500324,2.122818 -0.05987,0 -0.69933,-0.295752 -1.420928,-0.657239 -2.50286,-1.253799 -2.876125,-1.135068 -0.962638,0.306241 0.669651,0.504386 1.479519,1.194373 1.799727,1.533288 0.580179,0.614077 0.575886,0.613053 -1.242733,-0.295208 -1.00371,-0.501287 -1.860456,-0.875892 -1.90388,-0.832471 -0.04344,0.04345 0.468843,0.553683 1.138365,1.133924 2.48473,2.153435 2.493976,2.390481 0.04111,1.053393 -0.931228,-0.507606 -1.660364,-0.834916 -1.620328,-0.727338 0.04009,0.107597 0.741084,0.817767 1.557883,1.578212 l 1.485068,1.382627 1.265958,-1.603677 c 2.835506,-3.591885 4.445413,-7.152165 4.445413,-9.830799 0,-0.559141 0.0799,-1.066039 0.177644,-1.126428 0.285306,-0.176326 3.10942,1.81624 4.68192,3.303369 1.382805,1.307717 3.139127,3.453385 3.139127,3.834972 0,0.103188 -0.161597,0.09401 -0.377344,-0.02149 -0.553425,-0.296195 -0.597897,-0.264176 -0.600194,0.432084 -0.0028,0.670615 -0.430709,2.259094 -0.763416,2.830221 -0.166164,0.285218 -0.199502,0.24569 -0.206992,-0.245275 -0.0092,-0.587067 -0.292127,-1.239436 -0.463328,-1.06734 -0.295309,0.296868 -2.075803,2.840283 -2.075803,2.965303 0,0.0828 -0.08652,0.15049 -0.192232,0.15049 -0.105781,0 -0.01388,-0.452483 0.2041,-1.00553 0.713617,-1.81048 1.353063,-5.819725 1.090168,-6.835242 -0.103597,-0.39988 -1.416349,-1.503511 -1.555752,-1.307844 -0.03012,0.04228 -0.18408,0.882116 -0.342088,1.86626 l -0.287296,1.789346 0.590319,0.492515 c 0.324683,0.270892 0.497149,0.49721 0.383261,0.502966 -0.113917,0.0065 -0.405024,-0.173959 -0.646958,-0.399336 -0.485393,-0.452221 -0.507001,-0.448172 -0.683658,0.128287 -0.08898,0.290504 0.03893,0.55646 0.463489,0.963185 0.322559,0.309036 0.586478,0.649666 0.586478,0.756958 0,0.107329 -0.25625,-0.05046 -0.569423,-0.350454 -0.313185,-0.300033 -0.664337,-0.48686 -0.780371,-0.415147 -0.39208,0.242313 -0.2142,0.910124 0.374324,1.40536 0.321902,0.270873 0.585276,0.633578 0.585276,0.806043 0,0.220949 -0.204167,0.115612 -0.691312,-0.356506 -0.573364,-0.555704 -0.72267,-0.620489 -0.87494,-0.379669 -0.264873,0.418938 -0.230914,0.774476 0.08561,0.895928 0.316497,0.121424 1.934214,2.22327 1.711187,2.22327 -0.0812,0 -0.579988,-0.43897 -1.108428,-0.97547 -1.031862,-1.047625 -1.217763,-1.138442 -1.393409,-0.680732 -0.0728,0.189622 0.351836,0.787572 1.190669,1.676772 0.717072,0.76014 1.260216,1.42562 1.207004,1.47883 -0.05327,0.0531 -0.687175,-0.35015 -1.408745,-0.89641 -0.721573,-0.54624 -1.386661,-0.99319 -1.477957,-0.99319 -0.422971,0 -0.06324,0.64145 1.102093,1.9658 0.697453,0.79254 1.268077,1.51922 1.268077,1.61484 0,0.19365 0.03684,0.21857 -1.81333,-1.22688 -0.729086,-0.56961 -1.366862,-0.99439 -1.417281,-0.94397 -0.133222,0.13319 2.508806,3.44704 2.75705,3.45814 0.282462,0.0129 3.109072,-2.92634 4.212767,-4.38019 0.963452,-1.269124 1.722283,-2.670675 2.112496,-3.901799 0.136045,-0.429206 0.289377,-0.853485 0.340757,-0.942845 0.1361,-0.236668 1.49896,1.702635 2.294904,3.265553 0.72115,1.416121 0.7508,1.780941 0.0966,1.188911 -0.4617,-0.41785 -0.4039,-0.46273 -1.043304,0.8104 -0.43804,0.87216 -0.46702,1.037 -0.21856,1.24319 0.15754,0.13073 0.28643,0.36839 0.28643,0.52808 0,0.19817 -0.11924,0.14411 -0.37569,-0.1702 -0.32733,-0.40126 -0.39193,-0.41888 -0.50183,-0.13677 -0.0695,0.17809 0.0141,0.59511 0.1856,0.92669 0.36552,0.70685 0.223,0.78837 -0.28654,0.1639 -0.34418,-0.42177 -0.36388,-0.42428 -0.504,-0.0638 -0.09568,0.24614 0.003,0.63167 0.28396,1.12178 0.47267,0.82129 0.26471,1.03959 -0.24675,0.25903 -0.175753,-0.26826 -0.408086,-0.48772 -0.516282,-0.48772 -0.425479,0 -0.38335,0.58702 0.09661,1.34748 0.563642,0.8929 0.417482,1.05447 -0.281186,0.31077 -0.46331,-0.49316 -0.870505,-0.62026 -1.051078,-0.32807 -0.05415,0.0878 0.113399,0.59259 0.372566,1.12175 0.259176,0.52918 0.473973,1.03387 0.477321,1.12152 0.0037,0.0877 -0.385194,-0.16126 -0.863466,-0.55316 -1.169421,-0.95826 -1.445248,-0.72913 -0.696859,0.57889 0.325031,0.5681 0.590978,1.088079 0.590978,1.155489 0,0.31855 -0.538905,0.0564 -1.188635,-0.577919 -0.394567,-0.38526 -0.763542,-0.62583 -0.819937,-0.53457 -0.05641,0.0913 0.229808,0.71853 0.636015,1.393919 l 0.738583,1.22797 1.536304,-1.68445 c 2.471296,-2.709609 3.29032,-4.109849 3.94524,-6.744949 l 0.35884,-1.44384 0.98357,2.04845 c 2.02468,4.21679 2.6745,7.237049 2.53942,11.802949 -0.0756,2.55702 -0.17762,3.40409 -0.56392,4.68463 -0.52122,1.72775 -1.62713,3.84938 -2.36869,4.54423 l -0.48004,0.44981 -0.74177,-0.50338 c -0.40797,-0.27687 -1.318934,-0.67007 -2.024344,-0.87379 -0.70541,-0.20373 -2.379924,-0.68851 -3.721191,-1.07729 -6.623962,-1.92006 -11.560121,-5.62804 -17.749451,-13.333179 -1.992896,-2.48097 -2.25336,-2.73754 -2.362993,-2.32762 -0.152998,0.57208 -0.571011,1.37747 -0.789565,1.52125 -0.09025,0.0594 0.345748,0.63212 0.968794,1.272809 0.915415,0.94131 1.242695,1.46354 1.705186,2.7209 0.514968,1.39999 0.570895,1.78096 0.557681,3.79954 -0.0078,1.23394 -0.112375,2.47629 -0.231718,2.76078 -0.195565,0.46612 -0.117021,0.66854 0.795059,2.04845 0.81927,1.23952 1.1971,1.62411 1.983432,2.01893 0.534248,0.26823 1.081633,0.70719 1.216431,0.97545 0.356298,0.70904 0.307199,1.64431 -0.105916,2.01821 -0.617384,0.55873 -0.946864,0.40254 -1.06802,-0.50627 z m 15.651368,-7.73983 c -0.577879,-1.02821 -0.722642,-0.88344 -0.180084,0.18007 0.229565,0.45 0.464029,0.77154 0.521019,0.71455 0.05701,-0.057 -0.09646,-0.45958 -0.340935,-0.89463 z m 1.344524,-0.64906 c -0.759338,-1.25894 -0.720687,-1.21035 -0.855644,-1.0754 -0.129579,0.12958 1.113879,2.09092 1.328906,2.09613 0.07943,0.003 -0.133471,-0.4574 -0.473262,-1.02073 z m 1.68256,-0.17695 c -0.46078,-0.90175 -1.085152,-1.76623 -1.195802,-1.65557 -0.102541,0.10255 0.15753,0.63133 0.862272,1.75341 0.56344,0.8971 0.8056,0.82606 0.33353,-0.0979 z m 0.99346,-1.43294 c -0.40836,-0.80452 -0.81824,-1.46277 -0.91082,-1.46277 -0.24902,0 -0.21764,0.11083 0.34711,1.2258 0.6763,1.33526 1.073974,1.93195 1.202154,1.80378 0.0571,-0.0571 -0.23009,-0.76228 -0.638444,-1.56681 z m 1.847164,0.3841 c 0,-0.642 -1.731214,-3.50751 -1.749324,-2.89546 -0.0116,0.39739 1.344844,3.19458 1.549314,3.19458 0.11005,0 0.20001,-0.13461 0.20001,-0.29912 z m 1.56073,-2.13395 c 0.65938,-1.28612 0.68282,-1.40622 0.68282,-3.49751 0,-1.269949 -0.0918,-2.321199 -0.22223,-2.541699 -0.20336,-0.34411 -0.25958,-0.30285 -0.66187,0.48571 -0.37212,0.72939 -0.40956,0.97443 -0.24382,1.595359 0.22893,0.8577 0.0377,0.96811 -0.34128,0.19709 -0.24737,-0.503179 -0.26816,-0.510459 -0.33493,-0.1173 -0.0392,0.23056 0.10722,0.75207 0.32531,1.15895 0.21806,0.40687 0.34714,0.78889 0.28682,0.84892 -0.1094,0.10875 -0.71688,-0.55403 -1.04468,-1.13977 -0.0949,-0.16972 -0.23348,-0.2478 -0.30776,-0.17351 -0.0743,0.0743 0.13861,0.71988 0.4731,1.43468 0.77597,1.6582 0.769,1.8866 -0.0259,0.84733 -0.82721,-1.08155 -1.25582,-1.25306 -0.85716,-0.34301 0.15759,0.35965 0.48773,1.11616 0.73372,1.6811 0.24598,0.56493 0.53899,0.99754 0.65115,0.96133 0.1121,-0.0362 0.51115,-0.66515 0.88671,-1.39766 z m -12.102614,0.53094 c -0.0039,-0.0804 -0.235869,-0.40969 -0.515574,-0.7316 -0.516209,-0.59409 -0.51511,-0.59071 0.206782,0.63405 0.160081,0.27158 0.319547,0.32197 0.308788,0.0976 z m 0.939868,-1.30926 c -0.35211,-0.47866 -0.711524,-0.87372 -0.798658,-0.87791 -0.08714,-0.004 0.125312,0.38747 0.472022,0.87031 0.346756,0.48285 0.706159,0.87791 0.79867,0.87791 0.09246,0 -0.119882,-0.39164 -0.472034,-0.87031 z m 1.501182,-0.44655 c -0.483222,-0.81199 -1.261434,-1.73448 -1.262521,-1.49662 -10e-4,0.31418 1.177185,2.03311 1.39407,2.03311 0.103192,0 0.04411,-0.24142 -0.131549,-0.53649 z m 1.467764,-0.69098 c 0,-0.2722 -0.343434,-0.78417 -0.8779,-1.3087 -0.48286,-0.47388 -0.877911,-0.78449 -0.877911,-0.69026 0,0.25554 1.439922,2.44238 1.609508,2.44437 0.08044,7.2e-4 0.146294,-0.19951 0.146294,-0.44541 z M 75.239908,100.893 c 0,-0.0404 -0.133692,-0.1846 -0.297099,-0.32022 -0.248425,-0.20618 -0.276965,-0.19412 -0.174226,0.0737 0.105,0.27345 0.471325,0.46513 0.471325,0.24656 z m 1.204883,-0.65792 c -0.458069,-0.642649 -1.204883,-1.341159 -1.204883,-1.126939 0,0.20868 1.228973,1.626349 1.427691,1.646919 0.08779,0.009 -0.01296,-0.22491 -0.222803,-0.51998 z m 0.55446,-1.470149 c -1.103346,-1.06802 -0.995641,-0.75385 0.168348,0.49111 0.374378,0.40041 0.726097,0.68259 0.781614,0.62707 0.0556,-0.0556 -0.371973,-0.55869 -0.949967,-1.11818 z m 2.173289,-0.0738 c -0.28859,-0.5276 -1.955137,-2.108 -2.085459,-1.97768 -0.06156,0.0615 0.38749,0.65135 0.997902,1.31065 1.068688,1.15434 1.498206,1.41774 1.087557,0.66703 z m 1.259312,-0.99831 c -0.260775,-0.50429 -2.117376,-2.3837 -2.354771,-2.3837 -0.296904,0 0.0052,0.45455 1.08192,1.63003 1.254112,1.36865 1.73948,1.65604 1.272851,0.75367 z m -30.47623,-3.00484 c 0.377324,-1.34512 0.611384,-3.67085 0.369423,-3.67085 -0.101112,0 -0.366153,0.85596 -0.588947,1.90213 -0.222804,1.04618 -0.607376,2.34109 -0.854637,2.87758 -0.65637,1.42421 -0.655441,1.43054 0.09492,0.64696 0.432583,-0.45173 0.796315,-1.10395 0.979179,-1.75582 z m 15.088602,1.69414 c 0.115212,-0.37554 0.157936,-0.88035 0.09479,-1.12176 -0.293387,-1.12255 -1.713901,-3.06189 -2.840563,-3.87803 -0.963571,-0.69802 -1.564239,-0.77355 -0.964709,-0.12129 0.769265,0.83685 2.547125,3.76047 2.906539,4.7797 0.19867,0.56333 0.41365,1.02423 0.477764,1.02423 0.06413,0 0.210871,-0.30727 0.32613,-0.68282 z m 16.731212,0.22063 c 0,-0.3805 -2.696882,-2.74741 -2.797346,-2.45507 -0.09401,0.27352 2.318108,2.94696 2.580124,2.8596 0.119479,-0.0399 0.217217,-0.22187 0.217217,-0.40453 z M 69.19426,94.863931 c -0.363359,-0.3453 -0.538347,-0.45223 -0.388873,-0.23762 0.518627,0.74456 0.840086,1.07483 0.944548,0.9704 0.05767,-0.0577 -0.192303,-0.38752 -0.555675,-0.73278 z m 1.753665,-0.0839 c 0,-0.20168 -1.610696,-1.81198 -1.812426,-1.81198 -0.09376,0 0.209843,0.43501 0.674657,0.96667 0.796471,0.91102 1.137769,1.16458 1.137769,0.84531 z m 0.0644,-1.89074 c -1.255328,-1.15273 -1.365116,-0.94768 -0.152015,0.28391 0.528997,0.53709 0.991513,0.88749 1.027787,0.77868 0.03634,-0.10875 -0.357838,-0.58695 -0.875766,-1.06259 z m 2.045863,-0.0604 c -0.06518,-0.33792 -1.853237,-1.809 -2.201131,-1.81081 -0.103592,-5.4e-4 0.288422,0.48186 0.871241,1.072 1.103798,1.11769 1.438682,1.30373 1.32989,0.73881 z m 1.289559,-0.96707 c 0.0688,-0.1792 0.05612,-0.37694 -0.02793,-0.43945 -0.08417,-0.0625 -0.679675,-0.45729 -1.323478,-0.87732 -0.643789,-0.420038 -1.199983,-0.837371 -1.23597,-0.927413 -0.03609,-0.09003 -0.161734,-0.104221 -0.279448,-0.03136 -0.19237,0.118823 2.290398,2.582563 2.616321,2.596173 0.06891,0.003 0.181711,-0.14135 0.250466,-0.32057 z M 50.463449,88.675936 c 0,-0.107329 -0.08779,-0.195102 -0.195096,-0.195102 -0.107324,0 -0.195073,0.08782 -0.195073,0.195102 0,0.10732 0.08779,0.195092 0.195073,0.195092 0.107325,0 0.195096,-0.08782 0.195096,-0.195092 z m 9.292205,-0.438956 c -0.06465,-0.241438 -0.118832,-0.592593 -0.120263,-0.780361 -0.0027,-0.409188 -0.355638,-0.431042 -0.854816,-0.05304 -0.349096,0.264406 -0.340909,0.296656 0.195096,0.767991 0.696629,0.612573 0.931953,0.632295 0.780023,0.0654 z m 5.729751,-1.198433 c 0,-0.04225 -0.13168,-0.127254 -0.292625,-0.188976 -0.160953,-0.06181 -0.29265,-0.02731 -0.29265,0.07666 0,0.103971 0.131702,0.188948 0.29265,0.188948 0.160952,0 0.292625,-0.0345 0.292625,-0.07666 z m 0.585277,-1.169282 c 0,-0.160215 -1.193157,-0.24094 -1.288188,-0.08717 -0.05522,0.08948 0.211988,0.162585 0.593861,0.162585 0.381877,0 0.694327,-0.03385 0.694327,-0.07537 z M 50.191321,83.931964 C 49.683182,82.581951 49.101102,81.384992 48.48448,80.422183 l -0.398882,-0.622854 0.105135,0.740364 c 0.139053,0.97968 2.007845,4.624631 2.371088,4.624631 0.05135,0 -0.115345,-0.554578 -0.370445,-1.23236 z m 4.087267,-0.524866 c -1.048802,-1.896091 -3.290964,-4.985208 -3.394015,-4.676055 -0.142808,0.428416 1.168159,2.667694 2.645843,4.519429 0.829717,1.039722 1.537348,1.86165 1.572508,1.826486 0.03516,-0.03515 -0.335777,-0.786607 -0.824336,-1.66986 z m -21.288991,0.997049 c 2.175371,-0.986357 3.517695,-2.55484 3.98257,-4.653582 0.235754,-1.064332 0.05088,-1.053559 -0.524218,0.03052 -0.437934,0.825513 -3.095195,3.565716 -4.518083,4.659116 -0.888211,0.682534 -0.495612,0.669176 1.059731,-0.03607 z m 8.934862,-1.398294 c -0.446661,-1.54352 -0.542885,-1.734413 -0.595722,-1.181711 -0.08871,0.928872 0.758672,3.392366 1.062482,3.088561 0.0362,-0.03634 -0.173779,-0.89436 -0.46676,-1.90685 z m 24.87903,1.621974 c 0.05819,-0.177511 -0.229596,-0.239556 -1.057956,-0.228034 -1.127462,0.01568 -1.132597,0.01836 -0.552753,0.288225 0.684408,0.3185 1.496307,0.288169 1.610709,-0.06015 z M 51.826225,83.012642 c -0.777862,-1.5471 -2.107016,-3.701032 -2.283802,-3.701032 -0.14855,0 0.175476,1.24391 0.482757,1.853353 0.431661,0.8561 2.416748,3.646628 2.520368,3.543008 0.04876,-0.04861 -0.275,-0.811596 -0.719323,-1.695329 z m -7.849643,1.127449 c -0.04992,-0.134118 -0.206938,-0.726711 -0.34911,-1.316841 -0.293412,-1.217986 -0.577464,-1.686426 -0.577464,-0.952349 0,0.738927 0.570986,2.513053 0.808795,2.513053 0.114564,0 0.167611,-0.109783 0.117803,-0.243863 z M 40.2072,82.791979 c -0.404671,-1.486748 -0.670421,-1.86044 -0.664528,-0.934436 0.0045,0.696448 0.699439,2.472991 0.892097,2.280334 0.06001,-0.05996 -0.04241,-0.665653 -0.227569,-1.345898 z m 7.639193,0.08007 c -0.243122,-0.616974 -0.63224,-1.516832 -0.864696,-1.999691 l -0.422635,-0.877899 0.08988,0.751626 c 0.103704,0.867282 1.165493,3.24773 1.44873,3.24773 0.104999,0 -0.0078,-0.504802 -0.251218,-1.121766 z m 20.211222,0.0488 c 0.953613,-1.377125 1.755141,-3.732451 1.866157,-5.48384 0.120262,-1.896866 -0.03982,-2.083466 -1.154904,-1.345589 -0.580309,0.384024 -0.733158,0.581164 -0.574012,0.740298 0.373719,0.373716 0.240292,0.529046 -0.454395,0.529046 -0.938871,0 -1.037474,0.325898 -0.216994,0.717149 0.967671,0.461457 0.864077,0.650347 -0.282239,0.514567 -0.5365,-0.06362 -0.975455,-0.06751 -0.975455,-0.0091 0,0.05884 0.394911,0.356299 0.877563,0.661221 0.836598,0.528533 1.20346,1.013591 0.587989,0.777411 -0.159633,-0.06129 -0.730273,-0.169756 -1.26809,-0.241093 -1.228935,-0.16303 -1.288264,0.139166 -0.115212,0.587124 0.474402,0.181175 0.979205,0.470406 1.121773,0.642717 0.235688,0.284853 0.121937,0.300899 -1.252715,0.176705 -0.831581,-0.07513 -1.511953,-0.09738 -1.511953,-0.0494 0,0.04798 0.58375,0.360463 1.297227,0.694337 0.713463,0.333872 1.235129,0.669115 1.15926,0.744998 -0.07591,0.07592 -0.725464,0.122208 -1.443545,0.102809 l -1.305579,-0.03505 1.17055,0.570786 c 0.643789,0.313952 1.342368,0.55146 1.552413,0.527835 0.210022,-0.02362 0.625039,-0.394124 0.922241,-0.823329 z M 45.389687,81.449855 c -0.161734,-0.884444 -0.388771,-1.248125 -0.388771,-0.62275 0,0.420904 0.320455,1.410858 0.4567,1.410858 0.04189,0 0.01162,-0.354642 -0.06788,-0.788108 z m 9.381534,-0.497057 c -0.57604,-0.976294 -2.23942,-2.871455 -2.316723,-2.639544 -0.116642,0.349924 0.57546,1.474075 1.485442,2.412754 1.068573,1.102245 1.401376,1.193049 0.831281,0.22679 z m 1.656396,-0.61697 c -0.777824,-1.078622 -2.062364,-2.364906 -2.062364,-2.06517 0,0.51423 2.125224,2.969956 2.584611,2.986571 0.08031,0.0027 -0.154696,-0.411737 -0.522247,-0.921401 z m 1.546816,-0.527898 c -0.643802,-0.585031 -1.258342,-1.063751 -1.365647,-1.063841 -0.107325,-9e-5 0.323919,0.478722 0.958268,1.064022 0.634336,0.585327 1.248877,1.064045 1.365634,1.063854 0.116776,-1.94e-4 -0.314466,-0.479007 -0.958255,-1.064035 z m -22.11261,-4.148364 c 0.524505,-1.055692 0.591729,-1.367457 0.517147,-2.398504 -0.06909,-0.955421 -0.186001,-1.285366 -0.603232,-1.7026 -0.605637,-0.605627 -0.817376,-0.515432 -0.534792,0.227801 0.475828,1.25154 0.10585,3.485826 -0.890741,5.379346 -0.797988,1.516151 -0.787031,1.57385 0.111146,0.585271 0.438686,-0.482844 1.068898,-1.423937 1.400476,-2.091314 z m -3.999324,-1.266332 c 0.826908,-1.126467 1.043284,-1.107032 0.457548,0.04111 -0.229573,0.449986 -0.380819,0.854753 -0.336106,0.899469 0.171566,0.171567 2.286852,-2.708869 2.284021,-3.110171 -0.0074,-1.035585 -0.867536,-1.333097 -1.737623,-0.600972 -0.752561,0.633237 -0.988093,1.077484 -1.75349,3.307322 -0.727964,2.1208 -0.751677,2.406737 -0.105895,1.277 0.270717,-0.4736 0.80691,-1.289791 1.191541,-1.813758 z m 11.343553,0.413557 c -0.0459,-0.634039 -0.01162,-1.152807 0.07539,-1.152807 0.08728,0 0.158763,0.168281 0.158763,0.374003 0,0.476598 0.716803,2.162039 0.919746,2.162605 0.08431,2.46e-4 0.12415,-0.61429 0.08844,-1.365631 -0.04217,-0.889629 0.0091,-1.366062 0.146339,-1.366062 0.116128,0 0.211094,0.147881 0.211094,0.328602 0,0.518484 0.627819,2.620224 0.747087,2.50097 0.05896,-0.05896 0.09311,-0.522363 0.07564,-1.029545 -0.01742,-0.50717 0.04347,-1.273291 0.13559,-1.702484 0.151367,-0.705653 0.169801,-0.72434 0.192347,-0.195095 0.01363,0.3219 0.236361,1.024231 0.494769,1.560728 l 0.469824,0.975441 0.01541,-1.707035 c 0.0078,-0.938871 0.08121,-1.705278 0.161712,-1.703129 0.08042,0.0027 0.336034,0.41916 0.567934,0.92669 l 0.421627,0.922759 0.02936,-1.755812 0.02936,-1.755812 0.416521,0.829135 c 0.229091,0.456012 0.494211,0.829133 0.589179,0.829133 0.09492,0 0.1435,-0.614731 0.107838,-1.366085 -0.03555,-0.751326 -0.0091,-1.365865 0.05794,-1.365619 0.06751,2.46e-4 0.23252,0.265688 0.366825,0.58989 0.450179,1.086845 0.642921,0.906377 0.496113,-0.464533 -0.07629,-0.712508 -0.0966,-1.295469 -0.04487,-1.295469 0.05159,0 0.289068,0.329221 0.527744,0.731594 0.404557,0.682053 0.444463,0.703482 0.589399,0.316587 0.08547,-0.228264 0.0838,-0.733056 -0.0039,-1.121772 -0.193911,-0.859762 0.0219,-0.904998 0.579871,-0.121558 0.526501,0.739404 0.780357,0.743542 0.780357,0.01296 0,-0.835448 -0.333113,-1.586976 -1.018336,-2.297413 -0.69117,-0.716606 -0.93256,-0.673844 -0.93256,0.165199 v 0.588721 l -0.505086,-0.600238 c -0.706651,-0.839807 -1.139749,-0.803895 -0.995899,0.08261 0.135881,0.837379 -0.09349,0.872063 -0.645019,0.09756 -0.608901,-0.855132 -0.974316,-0.764266 -0.980692,0.243855 l -0.0052,0.829138 -0.531249,-0.635807 c -0.292183,-0.349688 -0.679362,-0.635004 -0.860389,-0.634036 -0.322651,0.001 -0.33844,0.426503 -0.06713,1.806335 0.109403,0.556139 -0.171321,0.39058 -0.55936,-0.329958 -0.198849,-0.369252 -0.490333,-0.72078 -0.647746,-0.781175 -0.234745,-0.09005 -0.27416,0.08324 -0.219296,0.964257 0.03684,0.590745 0.04371,1.073966 0.01542,1.073822 -0.02831,-1.4e-4 -0.320377,-0.285588 -0.648963,-0.634309 l -0.59747,-0.63404 0.102542,1.170538 0.102676,1.170549 -0.375955,-0.487734 c -0.206804,-0.268247 -0.377919,-0.560886 -0.38031,-0.650294 -0.0027,-0.08949 -0.110698,-0.127121 -0.240837,-0.0838 -0.150964,0.0503 -0.220771,0.426554 -0.192995,1.040472 0.04344,0.961334 0.04344,0.961476 -0.257465,0.42516 -0.165534,-0.295069 -0.340871,-0.53651 -0.389662,-0.53651 -0.149556,0 -0.609961,1.225299 -0.758567,2.018889 -0.09595,0.512419 -0.07475,0.710075 0.06699,0.622529 0.114183,-0.07061 0.207519,-0.254775 0.207519,-0.409381 0,-0.154629 0.06584,-0.281337 0.146339,-0.281583 0.08044,-2.46e-4 0.117536,0.75677 0.0825,1.682272 -0.0772,2.034988 0.235765,2.597814 0.454784,0.818001 l 0.151567,-1.231729 0.250443,1.170537 c 0.535397,2.502458 0.985307,2.864629 0.826212,0.665089 z m 10.601847,-0.07668 c 1.666777,-0.336243 7.512136,-1.068795 13.238236,-1.659035 5.99678,-0.618147 5.662297,-0.503328 3.762481,-1.291563 -1.755566,-0.728372 -5.794056,-1.83221 -6.703327,-1.83221 -0.84111,0 -5.473593,1.878364 -10.520393,4.26581 -1.854494,0.877277 -1.831152,0.931371 0.223003,0.516998 z m 0.264718,-2.597428 c 1.390072,-0.952837 5.665024,-2.995893 11.315248,-5.407689 5.852027,-2.497945 9.346825,-4.261683 10.91715,-5.509631 l 1.162648,-0.923951 -0.572175,-0.0991 c -1.341398,-0.232351 -4.511117,0.184795 -7.346715,0.966845 -1.574294,0.434187 -2.969642,0.789434 -3.100767,0.789434 -0.280288,0 -2.696481,1.78468 -2.709503,2.001341 -0.0052,0.08138 0.473936,-0.124506 1.064086,-0.457575 1.781312,-1.005302 1.210883,-0.471801 -1.168068,1.092478 -1.232595,0.81048 -3.493213,2.460146 -5.023579,3.665903 -1.530379,1.205774 -3.506789,2.743149 -4.392007,3.416385 -0.88522,0.673219 -1.609494,1.269189 -1.609494,1.324342 0,0.122853 0.2159,-0.0039 1.463176,-0.858788 z m 27.863491,-0.44504 c 5.321407,-0.656423 10.821681,-1.844895 14.666201,-3.169008 3.469231,-1.194832 4.983421,-2.021577 2.70839,-1.478754 -0.52391,0.124999 -2.02632,0.23772 -3.33867,0.250488 -2.19313,0.02123 -2.40944,0.05657 -2.67472,0.435276 -0.39898,0.569627 -1.0159,0.776581 -3.718234,1.247296 -2.857698,0.497768 -4.72334,0.966119 -7.008462,1.759408 -1.654648,0.5744 -1.805184,0.593551 -3.034816,0.386145 -1.279058,-0.215743 -1.310366,-0.210313 -2.746061,0.476522 l -1.452274,0.694751 1.755813,-0.110698 c 0.965716,-0.06077 3.144981,-0.282007 4.842833,-0.491457 z m -6.926482,-0.987859 c 0.824105,-0.337237 1.573415,-0.680011 1.66511,-0.761736 0.09168,-0.08171 -0.654534,-0.553244 -1.658268,-1.047819 -1.430345,-0.704762 -2.246884,-0.967165 -3.775906,-1.213483 l -1.950894,-0.314258 -1.801538,0.658347 c -0.990843,0.362103 -1.801823,0.702264 -1.802186,0.755916 -3.35e-4,0.05368 0.766444,0.284091 1.703997,0.512083 0.937553,0.228007 2.626432,0.769691 3.753093,1.203732 1.126648,0.434044 2.120388,0.796201 2.20832,0.804773 0.08793,0.0078 0.834154,-0.260321 1.658272,-0.597559 z m 8.671638,-1.620511 c 1.634297,-0.370135 3.849356,-0.818299 4.922352,-0.995937 1.960599,-0.324603 3.609173,-0.883264 3.609173,-1.223054 0,-0.100419 -0.99453,-0.632102 -2.210054,-1.181508 -2.59579,-1.173262 -3.219682,-1.228377 -6.891034,-0.608785 -2.204403,0.372029 -7.771523,1.672934 -8.147426,1.903849 -0.269981,0.165868 4.911617,2.730772 5.595545,2.769798 0.0825,0.0039 1.487177,-0.294254 3.121444,-0.664363 z m -29.70619,-1.390512 c 0,-0.511164 -0.152529,-0.850373 -0.57026,-1.268105 -0.671193,-0.671184 -0.990457,-0.725096 -0.990457,-0.167253 0,0.507063 0.316367,1.131463 0.852453,1.682415 0.581422,0.597547 0.708264,0.553309 0.708264,-0.247066 z m 1.365634,-0.05626 c 0,-0.397363 -0.702718,-1.391943 -0.983485,-1.391943 -0.174582,0 -0.132708,0.208302 0.245076,1.219318 0.226714,0.606693 0.738409,0.726321 0.738409,0.172616 z m 0.975454,-0.514041 c 0,-0.160953 -0.131703,-0.29263 -0.292637,-0.29263 -0.304652,0 -0.38705,0.230731 -0.162583,0.455204 0.224463,0.224482 0.455211,0.14207 0.455211,-0.162584 z m 20.715559,-1.930525 c 3.785924,-0.908928 6.204421,-1.384489 8.98633,-1.767034 1.26045,-0.173332 2.708991,-0.494599 3.218994,-0.713946 l 0.92728,-0.398808 -0.64333,-0.271824 c -0.869762,-0.367498 -4.06047,-1.33698 -6.064038,-1.842525 l -1.635019,-0.412564 -1.096248,0.722064 c -0.602926,0.397146 -1.640682,1.152352 -2.306147,1.678252 -1.117466,0.883137 -3.64148,2.468601 -5.362455,3.368424 -0.395805,0.206961 -0.682752,0.435965 -0.637674,0.508925 0.102543,0.165957 0.996172,-0.0031 4.612307,-0.870964 z m 24.008899,0.372905 c 0.72428,-0.188749 1.31685,-0.412819 1.31685,-0.497967 0,-0.340904 -1.8919,-1.789781 -3.175751,-2.432057 -1.55678,-0.778825 -2.37428,-0.843815 -4.92048,-0.391199 -1.49634,0.265998 -4.032434,1.347085 -4.076914,1.737925 -0.0267,0.234202 2.097134,1.413156 3.198994,1.775824 1.20992,0.398219 5.83682,0.281887 7.657301,-0.192526 z M 61.102836,63.271097 c 1.1285,-1.035806 9.048993,-7.997451 11.659403,-10.247923 0.404495,-0.348721 0.652609,-0.63404 0.551369,-0.63404 -0.101245,0 -1.048064,0.724454 -2.104017,1.6099 -1.055963,0.885446 -3.324571,2.613269 -5.041357,3.839615 -7.134939,5.096639 -9.65699,7.068386 -9.65699,7.549859 0,0.128195 0.846062,-0.008 1.414412,-0.228166 0.242617,-0.09392 0.3414,-0.03662 0.3414,0.197822 0,0.39067 0.687939,-0.115636 2.83578,-2.087061 z m -3.623729,-1.942421 c 2.948475,-3.554192 7.190947,-8.350519 8.683786,-9.817453 0.545978,-0.536494 1.531324,-1.370509 2.189675,-1.853355 3.288984,-2.412231 8.10218,-6.519136 8.726158,-7.445665 0.469112,-0.696597 1.055734,-1.22128 1.993066,-1.782647 1.828161,-1.094875 3.964701,-3.293694 5.986907,-6.161444 0.937083,-1.328933 1.673683,-2.446373 1.636848,-2.483192 -0.09179,-0.09173 -3.61722,2.452451 -5.407831,3.902604 -3.25425,2.635513 -10.613368,9.863499 -16.019157,15.733706 -1.436587,1.560005 -4.587263,4.972693 -7.001503,7.583765 -2.41424,2.611062 -4.416499,4.86088 -4.449436,4.999574 -0.05327,0.224345 0.252928,0.39031 0.844241,0.457533 0.109536,0.01251 1.377245,-1.397595 2.817246,-3.133426 z m 48.169303,1.68149 c 0.86211,-0.811017 2.00969,-1.98504 2.5502,-2.608951 l 0.98272,-1.134373 -3.07052,0.08133 c -3.94689,0.104553 -3.99788,0.114742 -5.57022,1.113965 l -1.329151,0.844669 0.990671,0.635715 c 0.54487,0.349644 1.52729,1.064671 2.18316,1.588958 0.65586,0.524282 1.30571,0.953237 1.44408,0.953237 0.13836,0 0.95694,-0.663554 1.81906,-1.474566 z M 68.314213,60.753914 c 2.598875,-1.339189 4.462381,-1.825 8.159104,-2.127026 2.705017,-0.221016 3.872669,-0.648956 5.260132,-1.927879 0.717045,-0.660939 2.09045,-2.774965 2.09045,-3.217719 0,-0.06674 -0.37311,-0.06976 -0.829136,-0.0067 -2.939307,0.40597 -5.055813,1.069539 -7.828552,2.454401 -1.059883,0.529364 -1.959674,0.92987 -1.999529,0.890001 -0.137579,-0.137579 3.344861,-2.412356 4.60941,-3.010942 0.697454,-0.330148 1.88263,-0.777771 2.633725,-0.994722 4.532534,-1.309231 4.177613,-1.150339 5.449431,-2.439718 0.694765,-0.704369 1.469416,-1.757476 1.868125,-2.539616 l 0.68115,-1.336248 1.658272,-0.725043 c 2.655764,-1.161163 4.331864,-2.297757 5.778234,-3.918347 0.71823,-0.804744 2.16949,-2.372391 3.22499,-3.483658 1.567591,-1.650409 1.821081,-1.995882 1.383971,-1.88617 -0.930141,0.233445 -6.313681,2.913452 -8.187411,4.075803 -3.829081,2.375355 -9.433962,6.727663 -15.389259,11.950101 -10.694021,9.377999 -10.375557,9.094526 -10.123824,9.011574 0.107325,-0.0354 0.809622,-0.380951 1.560717,-0.767994 z m 26.715536,0.119278 c 1.91253,-0.223717 2.795,-0.424071 3.652,-0.829135 0.62156,-0.293775 1.13224,-0.580461 1.13483,-0.637097 0.006,-0.129804 -6.20446,-2.42293 -7.47851,-2.761367 -0.92075,-0.244586 -1.02342,-0.225776 -3.609173,0.661188 -1.463808,0.502113 -3.012612,1.061362 -3.441821,1.242775 l -0.78036,0.329836 0.78036,0.290021 c 2.063203,0.766779 6.111654,1.980654 6.634274,1.989194 0.32255,0.0052 1.72133,-0.123166 3.1084,-0.285415 z m -34.04013,-0.962594 c 0.264556,-0.318757 4.337998,-3.391063 7.422149,-5.597993 3.655098,-2.615488 7.471024,-5.096361 9.069461,-5.896405 1.779412,-0.890623 3.891911,-2.795802 3.688333,-3.326348 -0.310017,-0.807876 -2.677613,-0.625957 -4.67024,0.358855 -2.876847,1.421823 -8.734071,6.262072 -11.599192,9.585269 -0.912039,1.057867 -2.298735,2.651353 -3.081551,3.541084 -0.78282,0.88973 -1.342257,1.617686 -1.243217,1.617686 0.09892,0 0.285475,-0.126965 0.414257,-0.282148 z m 47.035711,-1.860213 c 1.02498,-0.09977 1.99068,-0.231934 2.146,-0.293701 0.2625,-0.104374 2.91612,-3.632385 2.91612,-3.876975 0,-0.06069 -0.55898,-0.05803 -1.24219,0.006 -0.71678,0.06694 -2.54802,-0.02884 -4.32942,-0.22641 -3.61773,-0.401243 -8.964591,-0.330548 -10.425791,0.137847 -1.27209,0.407768 -3.31653,1.351206 -3.31653,1.530457 0,0.215877 3.69118,1.63407 5.54515,2.13049 2.494111,0.667816 5.695201,0.885675 8.706661,0.592556 z M 88.896241,55.275724 c 4.461828,-1.641184 7.023268,-2.762038 7.023268,-3.073286 0,-0.198202 -2.46892,-0.965221 -3.80426,-1.181861 -3.8002,-0.616535 -5.317538,0.09134 -7.04621,3.287287 -0.502893,0.929746 -1.076564,1.923464 -1.274827,2.208281 -0.450974,0.64782 -0.456301,0.830476 -0.01922,0.654839 0.187765,-0.07544 2.492267,-0.928302 5.121105,-1.89526 z m 24.369249,-2.770493 c 0.82587,-0.204951 0.89725,-0.283062 1.75581,-1.921151 1.05046,-2.004166 1.11138,-1.896471 -1.40807,-2.489432 -2.80879,-0.661062 -5.83727,-0.868362 -8.89341,-0.608747 -1.46023,0.124038 -2.85924,0.280421 -3.10891,0.347512 -0.29157,0.07836 -0.86725,0.7504 -1.60949,1.878957 -0.635551,0.966332 -1.155571,1.81859 -1.155571,1.893898 0,0.0753 1.514401,0.196884 3.365331,0.270178 2.13747,0.08465 4.29062,0.301068 5.90146,0.593198 2.54274,0.461124 3.41396,0.467141 5.15285,0.03562 z M 98.002449,49.60909 c 0.87792,-1.318676 1.6962,-2.870169 1.57679,-2.989592 -0.17154,-0.171522 -2.89897,-0.465819 -4.35035,-0.469393 -1.71502,-0.0045 -3.34123,0.347364 -4.900794,1.059554 -0.84792,0.387206 -1.07111,0.605165 -1.414411,1.381233 -0.224187,0.506818 -0.407121,0.932268 -0.406531,0.945458 6.09e-4,0.01318 0.856562,0.03701 1.902132,0.05294 1.331164,0.02033 2.512744,0.18361 3.941604,0.544858 1.12228,0.283739 2.08067,0.556026 2.12974,0.605083 0.30885,0.308861 0.81312,-0.06563 1.52182,-1.130128 z m 19.084091,-3.706716 c 0.38506,-1.022474 0.5611,-1.918892 0.63531,-3.235052 l 0.10267,-1.820648 -0.85656,0.116619 c -7.07633,0.963553 -9.54058,1.357792 -10.30679,1.648933 -1.74417,0.662739 -5.21931,3.157257 -4.96702,3.565445 0.0717,0.115927 1.2418,0.136082 3.07203,0.05294 3.24616,-0.147455 6.57438,0.09512 9.29677,0.677587 2.5874,0.553581 2.41473,0.611019 3.02363,-1.005842 z M 99.406419,44.887142 c 1.309341,-0.348487 5.740481,-2.857662 5.489601,-3.108538 -0.36664,-0.36664 -3.00402,0.304111 -6.631731,1.68662 -2.03918,0.777114 -3.70822,1.478775 -3.70903,1.559248 -0.003,0.258193 3.76593,0.151501 4.85116,-0.13733 z m -12.266012,-3.503738 0.487727,-0.343389 -0.682819,0.134764 c -2.11725,0.417848 -5.037449,2.600254 -4.371014,3.266686 0.06389,0.06386 1.007575,-0.520856 2.097215,-1.299305 1.089637,-0.778442 2.200638,-1.569883 2.468891,-1.758749 z m -7.511842,2.073972 1.559876,-0.08806 1.610335,-1.610349 c 0.885708,-0.885688 1.610373,-1.720301 1.610373,-1.854682 0,-0.383901 -1.893029,-0.137067 -2.999193,0.391082 -1.350904,0.645011 -2.770486,1.759301 -3.493119,2.741915 -0.496231,0.674785 -0.543263,0.810398 -0.234434,0.676126 0.212458,-0.09237 1.088241,-0.207587 1.946162,-0.256022 z m 20.258304,-1.630521 c 1.290401,-0.539135 3.281441,-1.449298 4.424541,-2.022587 3.59224,-1.801572 7.73388,-3.428289 8.67785,-3.408417 0.10759,0.0022 -1.04555,0.649153 -2.56263,1.437533 -1.51709,0.788383 -3.44528,1.812614 -4.28486,2.276064 -1.43813,0.793877 -1.49599,0.850806 -0.99944,0.983597 0.28986,0.07751 1.55961,0.01944 2.82167,-0.129133 4.28111,-0.503881 9.44386,-1.219065 9.54736,-1.322574 0.18008,-0.180081 -0.78584,-1.907017 -1.55607,-2.782044 -0.44293,-0.503196 -1.26817,-1.102071 -2.04581,-1.484629 -1.29134,-0.635294 -1.32863,-0.641091 -4.03785,-0.627499 -3.06768,0.01541 -5.58913,0.499273 -7.04376,1.351745 -1.17328,0.687587 -6.323131,6.194929 -6.323131,6.762069 0,0.299218 0.71144,0.08169 3.38213,-1.034133 z m -7.77164,-3.98114 c 2.3904,-1.202115 2.56701,-1.331011 3.07267,-2.242715 0.29507,-0.532005 0.5365,-1.005545 0.5365,-1.052307 0,-0.143322 -2.70188,0.654309 -4.2869,1.265557 -0.824054,0.317788 -1.886604,0.899308 -2.361204,1.29227 -1.11575,0.923833 -3.301499,3.040689 -3.301499,3.197427 0,0.272177 3.970939,-1.268638 6.340433,-2.460232 z m -6.242891,0.194626 c 0.751091,-0.368345 1.672885,-0.940584 2.048449,-1.271642 l 0.682801,-0.601918 -0.585259,0.12692 c -0.703326,0.152528 -4.326924,1.887092 -4.877259,2.334662 -0.370318,0.301164 -0.345477,0.311324 0.48772,0.199498 0.482859,-0.06479 1.49245,-0.419191 2.243548,-0.787536 z m 0.682801,-2.173463 c 0.590167,-0.387308 1.819225,-1.288571 2.731266,-2.002803 2.103394,-1.647188 4.081914,-2.922793 6.272894,-4.04428 1.36945,-0.70099 1.72582,-0.970817 1.72582,-1.306759 0,-0.675606 -0.54321,-1.291334 -1.13284,-1.284072 -0.84992,0.0105 -3.76754,1.211588 -5.371714,2.211421 -1.852333,1.15451 -2.894205,2.189389 -4.615187,4.584203 -0.742834,1.033682 -1.527707,2.098901 -1.744166,2.367148 -0.21648,0.268249 -0.395507,0.554746 -0.397901,0.636659 -0.0078,0.235192 1.357012,-0.390502 2.531828,-1.161517 z m 5.65763,-1.295118 c 1.34125,-0.385965 2.812,-0.796248 3.26836,-0.911748 0.69004,-0.174627 0.88117,-0.331856 1.13539,-0.933896 0.39667,-0.939434 0.92226,-2.973922 0.79989,-3.096293 -0.22103,-0.221017 -6.35175,3.800027 -7.934914,5.204367 -0.643342,0.570678 -0.654624,0.600881 -0.19509,0.522507 0.26826,-0.04572 1.58512,-0.398972 2.926364,-0.784937 z"
       id="path2"
       sodipodi:nodetypes="csssssssssssscssssscssccssssssssscsssssssssssssscsssssssssssssssssssscsssscccsssssssssssssssssccssscsssssssscccsssssssssscssscsscsscccssssssssscsssscssscssssssssssssssssssssscssssssssscsssssscsscsscssssssssssssscsssssssssssssssscscsssssssssssssssssssssssssssssssssssscsssssscsssssscsscsssscssssssssssssssccsssssscssssssssssssssssssssssssssssssscsscscssscsscssscssssssssssssssssssscsssssssssssssssssssssssssssssssssssssssssssssssscssssssssssssssscsssssssssssssssssssssssssssssssssssssscssssssssssssssssssssscsssssssssssssssssssssssssssssssscssssscssssssssssscssscccssssssssscsssscsssccscsssssscccscsssssssssscsccsssssscsscssscssssscssssssssscsssssscsssssssssssscsssssssssssssscsscsscsssscssssssssssssssssssssssssssssssscsscsssscssscsssssscsssssssccsssssscscsssssssssscsscssssccssssssssssssssssssssscsssssssssscssssssssscsscssssscsssssssssssscsssssssssssssssscsssssssssssscssssssss" /></g></svg>
